<svg width="177" height="38" viewBox="0 0 177 38" fill="none" xmlns="http://www.w3.org/2000/svg">
<g clip-path="url(#clip0)">
<path d="M73.3662 17.7859C73.2828 15.6188 71.4072 11.0346 66.4062 11.0346C61.1137 11.0346 59.3634 15.7022 59.2801 17.7859H73.3662ZM75.6165 18.9111C75.6165 19.2862 75.6165 19.3279 75.5748 19.7864H59.1964C59.3634 22.6619 61.7388 26.7876 66.7812 26.7876C69.6986 26.7876 71.9907 25.1624 73.2828 23.537L74.7414 25.0373C72.9078 27.2462 69.907 28.9131 66.7812 28.9131C61.1137 28.9131 57.0294 24.3288 57.0294 18.9111C57.0294 13.5352 60.7383 8.90923 66.4062 8.90923C71.4489 8.90923 75.6165 13.0768 75.6165 18.9111" fill="#FF9800"/>
<path d="M93.8258 16.2857V28.4131H91.6588V16.6191C91.6588 12.7018 89.3668 11.0347 86.2827 11.0347C82.0737 11.0347 80.4067 15.2855 80.4067 15.2855V28.4131H78.2397V9.40941H80.1984V12.8684C80.1984 12.8684 82.032 8.90933 86.6997 8.90933C90.2419 8.90933 93.8258 11.1181 93.8258 16.2857" fill="#FF9800"/>
<path d="M112.746 15.4521C112.746 15.4521 110.787 11.0346 105.87 11.0346C101.619 11.0346 98.7014 14.4937 98.7014 18.9111C98.7014 23.3286 101.619 26.7876 105.87 26.7876C110.787 26.7876 112.746 22.3701 112.746 22.3701V15.4521ZM114.913 9.4291V28.2079C114.913 34.1674 111.162 37.835 105.619 37.835C100.035 37.835 96.9092 33.9591 96.9092 33.9591L98.3681 32.4168C98.3681 32.4168 100.785 35.7093 105.619 35.7093C110.495 35.7093 112.746 32.5422 112.746 28.2912V25.2656C112.121 26.1409 110.079 28.9331 105.869 28.9331C100.618 28.9331 96.4508 24.8489 96.4508 18.931C96.4508 13.0131 100.618 8.9289 105.869 8.9289C110.87 8.9289 112.954 12.9297 112.954 12.9297V9.4291H114.913" fill="#FF9800"/>
<path d="M131.622 22.9535V19.7446C131.622 19.7446 129.372 18.161 125.579 18.161C123.079 18.161 119.995 19.4946 119.995 22.4952C119.995 25.4958 122.704 26.7876 125.163 26.7876C129.33 26.7876 131.622 22.9535 131.622 22.9535V22.9535ZM133.79 15.9523V28.413H131.831V25.1207C131.831 25.1207 129.33 28.9131 124.663 28.9131C121.454 28.9131 117.745 26.7043 117.745 22.4952C117.745 18.3277 121.579 16.0773 125.288 16.0773C129.164 16.0773 131.622 17.8694 131.622 17.8694V16.4524C131.622 11.8265 128.122 11.0346 126.038 11.0346C122.579 11.0346 119.828 12.785 119.828 12.785L118.87 10.9095C118.87 10.9095 121.996 8.90923 125.996 8.90923C131.289 8.90923 133.79 12.0765 133.79 15.9523" fill="#FF9800"/>
<path d="M152.712 15.4521C152.712 15.4521 150.753 11.0346 145.835 11.0346C141.585 11.0346 138.667 14.4937 138.667 18.9111C138.667 23.3286 141.585 26.7876 145.835 26.7876C150.753 26.7876 152.712 22.3701 152.712 22.3701V15.4521ZM154.879 9.4291V28.2079C154.879 34.1674 151.128 37.835 145.586 37.835C140.001 37.835 136.876 33.9591 136.876 33.9591L138.334 32.4168C138.334 32.4168 140.751 35.7093 145.586 35.7093C150.462 35.7093 152.712 32.5422 152.712 28.2912V25.2656C152.087 26.1409 150.045 28.9331 145.836 28.9331C140.584 28.9331 136.417 24.8489 136.417 18.931C136.417 13.0131 140.584 8.9289 145.836 8.9289C150.837 8.9289 152.92 12.9297 152.92 12.9297V9.4291H154.879" fill="#FF9800"/>
<path d="M173.869 17.7859C173.786 15.6188 171.91 11.0346 166.909 11.0346C161.617 11.0346 159.866 15.7022 159.783 17.7859H173.869ZM176.12 18.9111C176.12 19.2862 176.12 19.3279 176.078 19.7864H159.7C159.866 22.6619 162.242 26.7876 167.285 26.7876C170.202 26.7876 172.494 25.1624 173.786 23.537L175.244 25.0373C173.411 27.2462 170.41 28.9131 167.285 28.9131C161.617 28.9131 157.533 24.3288 157.533 18.9111C157.533 13.5352 161.242 8.90923 166.909 8.90923C171.952 8.90923 176.12 13.0768 176.12 18.9111Z" fill="#FF9800"/>
<path d="M0.762248 9.40537H5.57741V28.4263H0.762248V9.40537ZM3.16987 0.000675621C4.93547 0.000675621 6.34012 1.40532 6.34012 3.17075C6.34012 4.93647 4.93547 6.34082 3.16987 6.34082C1.40428 6.34082 0 4.93647 0 3.17075C0 1.40532 1.40428 0.000675621 3.16987 0.000675621Z" fill="#1E1E35"/>
<path d="M39.0508 16.1872V28.4263H34.2356V17.4312C34.2356 14.8227 33.2323 13.4183 30.8248 13.4183C28.2968 13.4183 27.0932 15.8661 27.0932 15.8661V28.4263H22.278V17.4312C22.278 14.8227 21.2751 13.4183 18.8675 13.4183C16.3393 13.4183 15.1355 15.8661 15.1355 15.8661V28.4263H10.3203V9.40537H14.8145V12.1743C14.8145 12.1743 16.5398 8.92397 20.4321 8.92397C25.0067 8.92397 26.3306 12.2546 26.3306 12.2546C26.3306 12.2546 27.9357 8.92397 32.3898 8.92397C36.242 8.92397 39.0508 11.6125 39.0508 16.1872Z" fill="#1E1E35"/>
<path d="M48.6381 28.4263H43.8229V9.40537H48.6381V28.4263ZM49.4013 3.17075C49.4013 4.93647 47.9964 6.34082 46.2309 6.34082C44.4652 6.34082 43.0612 4.93647 43.0612 3.17075C43.0612 1.40532 44.4652 0.000675621 46.2309 0.000675621C47.9964 0.000675621 49.4013 1.40532 49.4013 3.17075Z" fill="#1E1E35"/>
</g>
<defs>
<clipPath id="clip0">
<rect width="176.12" height="37.8351" fill="white"/>
</clipPath>
</defs>
</svg>
